<svg width="154" height="47" viewBox="0 0 154 47" fill="none" xmlns="http://www.w3.org/2000/svg">
<path d="M68.8042 23.2348H61.8873L61.8498 20.3293H68.1294C69.1666 20.3293 70.0726 20.1544 70.8474 19.8045C71.6222 19.4546 72.222 18.9547 72.6469 18.3049C73.0843 17.6426 73.303 16.8553 73.303 15.943C73.303 14.9433 73.1093 14.131 72.7219 13.5062C72.347 12.8689 71.7659 12.4065 70.9786 12.1191C70.2038 11.8192 69.2166 11.6692 68.0169 11.6692H62.6934V36.0001H59.0756V8.7075H68.0169C69.4165 8.7075 70.6662 8.85121 71.7659 9.13863C72.8656 9.41356 73.7966 9.85094 74.5589 10.4508C75.3337 11.0381 75.921 11.7879 76.3209 12.7002C76.7208 13.6124 76.9207 14.7059 76.9207 15.9805C76.9207 17.1052 76.6333 18.1237 76.0585 19.0359C75.4836 19.9357 74.6838 20.673 73.6591 21.2478C72.6469 21.8227 71.4597 22.1913 70.0976 22.3538L68.8042 23.2348ZM68.6355 36.0001H60.4627L62.5059 33.0571H68.6355C69.7852 33.0571 70.7599 32.8572 71.5597 32.4573C72.372 32.0574 72.9906 31.495 73.4154 30.7702C73.8403 30.0329 74.0528 29.1644 74.0528 28.1647C74.0528 27.1525 73.8716 26.2777 73.5092 25.5404C73.1468 24.8031 72.5782 24.2345 71.8034 23.8346C71.0286 23.4347 70.0289 23.2348 68.8042 23.2348H63.6494L63.6868 20.3293H70.7349L71.5035 21.379C72.8156 21.4915 73.9278 21.8664 74.8401 22.5037C75.7523 23.1286 76.4459 23.9284 76.9207 24.9031C77.4081 25.8778 77.6518 26.9525 77.6518 28.1272C77.6518 29.8267 77.2769 31.2639 76.5271 32.4385C75.7898 33.6007 74.7463 34.488 73.3967 35.1003C72.0471 35.7001 70.46 36.0001 68.6355 36.0001ZM86.2369 7.20791V36.0001H82.7504V7.20791H86.2369ZM95.5719 15.7181V36.0001H92.0854V15.7181H95.5719ZM91.8229 10.3383C91.8229 9.77596 91.9916 9.30109 92.329 8.91369C92.6789 8.5263 93.1913 8.3326 93.8661 8.3326C94.5284 8.3326 95.0346 8.5263 95.3845 8.91369C95.7469 9.30109 95.9281 9.77596 95.9281 10.3383C95.9281 10.8757 95.7469 11.338 95.3845 11.7254C95.0346 12.1003 94.5284 12.2878 93.8661 12.2878C93.1913 12.2878 92.6789 12.1003 92.329 11.7254C91.9916 11.338 91.8229 10.8757 91.8229 10.3383ZM104.588 19.7482V36.0001H101.102V15.7181H104.401L104.588 19.7482ZM103.876 25.0905L102.264 25.0343C102.276 23.6472 102.458 22.3663 102.807 21.1916C103.157 20.0044 103.676 18.9735 104.363 18.0987C105.051 17.2239 105.907 16.5491 106.931 16.0742C107.956 15.5869 109.143 15.3432 110.493 15.3432C111.443 15.3432 112.317 15.4807 113.117 15.7556C113.917 16.018 114.61 16.4366 115.198 17.0115C115.785 17.5863 116.241 18.3236 116.566 19.2234C116.891 20.1231 117.054 21.2103 117.054 22.485V36.0001H113.586V22.6537C113.586 21.5915 113.405 20.7417 113.042 20.1044C112.692 19.4671 112.192 19.0047 111.543 18.7173C110.893 18.4174 110.13 18.2674 109.256 18.2674C108.231 18.2674 107.375 18.4486 106.688 18.811C106 19.1734 105.45 19.6733 105.038 20.3106C104.626 20.9479 104.326 21.679 104.138 22.5037C103.963 23.316 103.876 24.1783 103.876 25.0905ZM117.016 23.1786L114.692 23.8909C114.704 22.7787 114.885 21.7102 115.235 20.6855C115.598 19.6608 116.116 18.7485 116.791 17.9487C117.478 17.1489 118.322 16.5179 119.322 16.0555C120.321 15.5806 121.465 15.3432 122.752 15.3432C123.839 15.3432 124.801 15.4869 125.639 15.7743C126.488 16.0617 127.201 16.5054 127.776 17.1052C128.363 17.6926 128.807 18.4486 129.107 19.3733C129.406 20.2981 129.556 21.3978 129.556 22.6724V36.0001H126.07V22.635C126.07 21.4978 125.889 20.6168 125.526 19.9919C125.176 19.3546 124.676 18.911 124.027 18.661C123.389 18.3986 122.627 18.2674 121.74 18.2674C120.977 18.2674 120.303 18.3986 119.715 18.661C119.128 18.9235 118.634 19.2859 118.234 19.7482C117.835 20.1981 117.528 20.7167 117.316 21.3041C117.116 21.8914 117.016 22.5162 117.016 23.1786ZM138.273 19.617V43.7979H134.786V15.7181H137.973L138.273 19.617ZM151.938 25.6904V26.084C151.938 27.5586 151.763 28.927 151.413 30.1891C151.063 31.4388 150.551 32.526 149.876 33.4508C149.214 34.3755 148.395 35.0941 147.42 35.6064C146.446 36.1188 145.327 36.375 144.065 36.375C142.778 36.375 141.641 36.1625 140.653 35.7376C139.666 35.3127 138.829 34.6942 138.142 33.8819C137.454 33.0696 136.904 32.0949 136.492 30.9577C136.092 29.8205 135.817 28.5396 135.667 27.115V25.0156C135.817 23.516 136.098 22.1726 136.511 20.9854C136.923 19.7982 137.467 18.786 138.142 17.9487C138.829 17.099 139.66 16.4554 140.635 16.018C141.609 15.5681 142.734 15.3432 144.009 15.3432C145.283 15.3432 146.414 15.5931 147.402 16.093C148.389 16.5804 149.22 17.2802 149.895 18.1924C150.569 19.1047 151.076 20.1981 151.413 21.4728C151.763 22.7349 151.938 24.1408 151.938 25.6904ZM148.451 26.084V25.6904C148.451 24.6781 148.345 23.7284 148.133 22.8411C147.92 21.9414 147.589 21.1541 147.139 20.4793C146.702 19.792 146.139 19.2546 145.452 18.8672C144.765 18.4673 143.946 18.2674 142.996 18.2674C142.122 18.2674 141.359 18.4174 140.71 18.7173C140.072 19.0172 139.529 19.4233 139.079 19.9357C138.629 20.4356 138.26 21.0104 137.973 21.6602C137.698 22.2975 137.492 22.9599 137.354 23.6472V28.5021C137.604 29.3769 137.954 30.2016 138.404 30.9764C138.854 31.7387 139.454 32.3573 140.203 32.8322C140.953 33.2945 141.897 33.5257 143.034 33.5257C143.971 33.5257 144.777 33.332 145.452 32.9446C146.139 32.5448 146.702 32.0012 147.139 31.3138C147.589 30.6265 147.92 29.8392 148.133 28.952C148.345 28.0522 148.451 27.0962 148.451 26.084Z" fill="#999999"/>
<path d="M35.5776 15.8444C38.3846 15.8444 40.6601 13.5799 40.6601 10.7864C40.6601 7.99285 38.3846 5.72827 35.5776 5.72827C32.7706 5.72827 30.4951 7.99285 30.4951 10.7864C30.4951 13.5799 32.7706 15.8444 35.5776 15.8444Z" fill="#999999"/>
<path d="M17.7888 10.7864C16.8028 10.7864 15.8371 10.8723 14.8917 11.0241C13.9159 7.95381 11.029 5.72827 7.62375 5.72827C3.41544 5.72827 0 9.1273 0 13.3154C0 15.6371 1.05208 17.7159 2.7039 19.1069C0.991092 21.8282 0 25.04 0 28.4896C0 38.2669 7.96428 46.1929 17.7888 46.1929C27.6132 46.1929 35.5775 38.2669 35.5775 28.4896C35.5775 18.7124 27.6132 10.7864 17.7888 10.7864ZM24.7264 33.5477C23.8471 32.0354 22.2105 31.0187 20.33 31.0187C18.4495 31.0187 16.8129 32.0354 15.9336 33.5477C15.5016 32.8042 15.2475 31.9393 15.2475 31.0187C15.2475 28.2266 17.5245 25.9606 20.33 25.9606C23.1356 25.9606 25.4125 28.2266 25.4125 31.0187C25.4125 31.9393 25.1584 32.8042 24.7264 33.5477Z" fill="#999999"/>
</svg>
