<svg width="133" height="46" viewBox="0 0 133 46" fill="none" xmlns="http://www.w3.org/2000/svg">
<path d="M71.3459 43.8489V19.668L71.6458 15.7691H74.8325V43.8489H71.3459ZM57.7184 26.135V25.7413C57.7184 24.1918 57.8996 22.7859 58.262 21.5237C58.6244 20.2491 59.1555 19.1556 59.8553 18.2434C60.5551 17.3311 61.3986 16.6313 62.3859 16.144C63.3856 15.6441 64.5228 15.3942 65.7974 15.3942C67.0721 15.3942 68.1905 15.6191 69.1528 16.069C70.1275 16.5064 70.9523 17.1499 71.6271 17.9997C72.3144 18.837 72.858 19.8492 73.2579 21.0364C73.6578 22.2235 73.9327 23.5669 74.0827 25.0665V26.791C73.9452 28.2781 73.6765 29.6153 73.2766 30.8025C72.8768 31.9896 72.3332 33.0019 71.6458 33.8391C70.971 34.6764 70.14 35.32 69.1528 35.7699C68.178 36.2072 67.0471 36.4259 65.7599 36.4259C64.5103 36.4259 63.3856 36.1697 62.3859 35.6574C61.3986 35.145 60.5551 34.4265 59.8553 33.5017C59.168 32.577 58.6369 31.4898 58.262 30.2401C57.8996 28.978 57.7184 27.6096 57.7184 26.135ZM61.2049 25.7413V26.135C61.2049 27.1472 61.3112 28.1032 61.5236 29.0029C61.736 29.8902 62.061 30.6775 62.4983 31.3648C62.9482 32.0521 63.5106 32.5957 64.1854 32.9956C64.8727 33.383 65.685 33.5767 66.6222 33.5767C67.7719 33.5767 68.7279 33.3268 69.4902 32.8269C70.265 32.327 70.8835 31.671 71.3459 30.8587C71.8083 30.0339 72.1644 29.1529 72.4144 28.2157V23.6981C72.2769 23.0108 72.0582 22.3423 71.7583 21.6924C71.4709 21.0426 71.096 20.4615 70.6336 19.9492C70.1712 19.4243 69.6089 19.0119 68.9466 18.712C68.2968 18.3996 67.5345 18.2434 66.6597 18.2434C65.71 18.2434 64.8914 18.4433 64.2041 18.8432C63.5168 19.2431 62.9482 19.793 62.4983 20.4928C62.061 21.1801 61.736 21.9736 61.5236 22.8734C61.3112 23.7731 61.2049 24.7291 61.2049 25.7413ZM83.8675 18.9557V36.051H80.3997V15.7691H83.7738L83.8675 18.9557ZM90.2033 15.6566L90.1845 18.8807C89.8971 18.8182 89.6222 18.7807 89.3598 18.7682C89.1098 18.7432 88.8224 18.7307 88.4975 18.7307C87.6977 18.7307 86.9917 18.8557 86.3793 19.1056C85.767 19.3556 85.2484 19.7055 84.8235 20.1554C84.3986 20.6052 84.0612 21.1426 83.8113 21.7674C83.5738 22.3798 83.4176 23.0546 83.3427 23.7919L82.3679 24.3542C82.3679 23.1295 82.4866 21.9799 82.7241 20.9052C82.974 19.8304 83.3551 18.8807 83.8675 18.0559C84.3799 17.2187 85.0297 16.5688 85.817 16.1065C86.6168 15.6316 87.5665 15.3942 88.6662 15.3942C88.9161 15.3942 89.2036 15.4254 89.5285 15.4879C89.8534 15.5379 90.0783 15.5941 90.2033 15.6566ZM101.15 33.5767C101.975 33.5767 102.737 33.408 103.437 33.0706C104.137 32.7332 104.712 32.2708 105.162 31.6835C105.612 31.0836 105.868 30.4026 105.93 29.6403H109.229C109.167 30.8399 108.761 31.9584 108.011 32.9956C107.274 34.0203 106.305 34.8514 105.105 35.4887C103.906 36.1135 102.587 36.4259 101.15 36.4259C99.6257 36.4259 98.2948 36.1572 97.1576 35.6199C96.0329 35.0825 95.0957 34.3452 94.3459 33.408C93.6086 32.4708 93.0525 31.396 92.6776 30.1839C92.3152 28.9592 92.134 27.6658 92.134 26.3037V25.5164C92.134 24.1543 92.3152 22.8671 92.6776 21.6549C93.0525 20.4303 93.6086 19.3493 94.3459 18.4121C95.0957 17.4748 96.0329 16.7375 97.1576 16.2002C98.2948 15.6628 99.6257 15.3942 101.15 15.3942C102.737 15.3942 104.124 15.7191 105.312 16.3689C106.499 17.0062 107.43 17.881 108.105 18.9932C108.792 20.0929 109.167 21.3425 109.229 22.7422H105.93C105.868 21.9049 105.63 21.1488 105.218 20.474C104.818 19.7992 104.268 19.2619 103.568 18.862C102.881 18.4496 102.075 18.2434 101.15 18.2434C100.088 18.2434 99.1946 18.4558 98.4698 18.8807C97.7575 19.2931 97.1889 19.8554 96.764 20.5677C96.3516 21.2676 96.0517 22.0486 95.8642 22.9109C95.6893 23.7606 95.6018 24.6291 95.6018 25.5164V26.3037C95.6018 27.1909 95.6893 28.0657 95.8642 28.928C96.0392 29.7902 96.3329 30.5713 96.7453 31.2711C97.1701 31.9709 97.7387 32.5332 98.451 32.9581C99.1758 33.3705 100.076 33.5767 101.15 33.5767ZM112.21 26.135V25.7038C112.21 24.2417 112.422 22.8859 112.847 21.6362C113.272 20.374 113.884 19.2806 114.684 18.3558C115.484 17.4186 116.452 16.6938 117.59 16.1814C118.727 15.6566 120.001 15.3942 121.414 15.3942C122.838 15.3942 124.119 15.6566 125.256 16.1814C126.406 16.6938 127.381 17.4186 128.18 18.3558C128.993 19.2806 129.611 20.374 130.036 21.6362C130.461 22.8859 130.674 24.2417 130.674 25.7038V26.135C130.674 27.5971 130.461 28.953 130.036 30.2026C129.611 31.4523 128.993 32.5457 128.18 33.483C127.381 34.4077 126.412 35.1325 125.275 35.6574C124.15 36.1697 122.876 36.4259 121.451 36.4259C120.026 36.4259 118.746 36.1697 117.608 35.6574C116.471 35.1325 115.496 34.4077 114.684 33.483C113.884 32.5457 113.272 31.4523 112.847 30.2026C112.422 28.953 112.21 27.5971 112.21 26.135ZM115.678 25.7038V26.135C115.678 27.1472 115.796 28.1032 116.034 29.0029C116.271 29.8902 116.627 30.6775 117.102 31.3648C117.59 32.0521 118.196 32.5957 118.92 32.9956C119.645 33.383 120.489 33.5767 121.451 33.5767C122.401 33.5767 123.232 33.383 123.944 32.9956C124.669 32.5957 125.269 32.0521 125.744 31.3648C126.218 30.6775 126.575 29.8902 126.812 29.0029C127.062 28.1032 127.187 27.1472 127.187 26.135V25.7038C127.187 24.7041 127.062 23.7606 126.812 22.8734C126.575 21.9736 126.212 21.1801 125.725 20.4928C125.25 19.793 124.65 19.2431 123.925 18.8432C123.213 18.4433 122.376 18.2434 121.414 18.2434C120.464 18.2434 119.627 18.4433 118.902 18.8432C118.189 19.2431 117.59 19.793 117.102 20.4928C116.627 21.1801 116.271 21.9736 116.034 22.8734C115.796 23.7606 115.678 24.7041 115.678 25.7038Z" fill="#999999"/>
<path d="M15.2557 5.53552H0V20.7098H15.2557V5.53552Z" fill="#999999"/>
<path d="M25.4262 5.53552H20.3409V15.6517H25.4262V5.53552Z" fill="#999999"/>
<path d="M40.6818 5.53552H30.5114V20.7098H40.6818V5.53552Z" fill="#999999"/>
<path d="M30.5114 20.7096H15.2557V46H30.5114V20.7096Z" fill="#999999"/>
<path d="M10.1705 35.8838H0V46H10.1705V35.8838Z" fill="#999999"/>
<path d="M10.1705 25.7677H0V30.8258H10.1705V25.7677Z" fill="#999999"/>
<path opacity="0.8902" d="M40.6818 35.8838H35.5966V46H40.6818V35.8838Z" fill="#999999"/>
<path d="M40.6818 25.7677H35.5966V30.8258H40.6818V25.7677Z" fill="#999999"/>
</svg>
